<svg width="648" height="376" viewBox="0 0 648 376" fill="none" xmlns="http://www.w3.org/2000/svg">
<path d="M433.651 5.71094C433.651 8.85195 431.081 11.4219 427.94 11.4219C424.799 11.4219 422.229 8.85195 422.229 5.71094C422.229 2.56992 424.799 0 427.94 0C431.081 0 433.651 2.56992 433.651 5.71094Z" fill="#8B5086"/>
<path d="M454.971 37.0264C457.337 37.0264 459.255 35.1087 459.255 32.7432C459.255 30.3776 457.337 28.46 454.971 28.46C452.606 28.46 450.688 30.3776 450.688 32.7432C450.688 35.1087 452.606 37.0264 454.971 37.0264Z" stroke="#FFC557" stroke-miterlimit="10"/>
<path d="M558.625 99.1804C558.625 100.418 557.673 101.37 556.436 101.37C555.198 101.37 554.247 100.418 554.247 99.1804C554.247 97.943 555.198 96.9912 556.436 96.9912C557.673 96.9912 558.625 97.943 558.625 99.1804Z" stroke="#648AC9" stroke-width="0.8104" stroke-miterlimit="10"/>
<path d="M51.7793 256.897C56.1424 256.897 59.6794 253.36 59.6794 248.997C59.6794 244.634 56.1424 241.097 51.7793 241.097C47.4162 241.097 43.8792 244.634 43.8792 248.997C43.8792 253.36 47.4162 256.897 51.7793 256.897Z" fill="#8B5086"/>
<path d="M94.1355 20.9404C96.501 20.9404 98.4187 19.0228 98.4187 16.6572C98.4187 14.2917 96.501 12.374 94.1355 12.374C91.7699 12.374 89.8523 14.2917 89.8523 16.6572C89.8523 19.0228 91.7699 20.9404 94.1355 20.9404Z" fill="#8B5086"/>
<path d="M577.947 204.166C580.05 204.166 581.754 202.462 581.754 200.359C581.754 198.256 580.05 196.552 577.947 196.552C575.844 196.552 574.14 198.256 574.14 200.359C574.14 202.462 575.844 204.166 577.947 204.166Z" fill="#8B5086"/>
<path d="M42.4514 310.484H647.24" stroke="#95B1DB" stroke-miterlimit="10"/>
<path d="M78.5255 101.655C80.3653 101.655 81.8569 100.163 81.8569 98.3236C81.8569 96.4837 80.3653 94.9922 78.5255 94.9922C76.6856 94.9922 75.1941 96.4837 75.1941 98.3236C75.1941 100.163 76.6856 101.655 78.5255 101.655Z" stroke="#95B1DB" stroke-width="2" stroke-miterlimit="10"/>
<path d="M613.069 244.048C613.069 246.142 611.356 247.855 609.262 247.855C607.168 247.855 605.455 246.142 605.455 244.048C605.455 241.954 607.168 240.24 609.262 240.24C611.356 240.24 613.069 241.954 613.069 244.048Z" fill="#839DC9"/>
<path d="M631.249 166.283C631.249 167.425 630.392 168.282 629.25 168.282C628.108 168.282 627.251 167.425 627.251 166.283C627.251 165.141 628.108 164.284 629.25 164.284C630.297 164.284 631.249 165.141 631.249 166.283Z" fill="#839DC9"/>
<path d="M354.364 312.673H131.542V45.5919C131.542 31.8857 142.107 20.2734 155.718 20.2734L354.364 20.8445V312.673V312.673Z" fill="#60A67E"/>
<path d="M135.635 312.673H354.364V47.4004L170.757 23.1289L135.635 312.673Z" fill="#4E966B"/>
<path d="M447.071 43.7839C447.071 30.6487 436.411 19.9883 423.276 19.9883H176.944V20.1786L153.434 20.0835C167.806 20.0835 176.849 30.1728 176.849 42.4513L176.944 42.3561V321.05C176.944 339.42 191.887 354.364 210.258 354.364H390.914L448.023 353.602L447.071 43.7839Z" fill="#BAECCF"/>
<path d="M255.362 103.312C268.854 89.819 268.854 67.9427 255.362 54.4497C241.869 40.9568 219.992 40.9568 206.499 54.4497C193.006 67.9427 193.006 89.819 206.499 103.312C219.992 116.805 241.869 116.805 255.362 103.312Z" fill="#FCFCFC"/>
<mask id="mask0_151_2944" style="mask-type:alpha" maskUnits="userSpaceOnUse" x="196" y="44" width="70" height="70">
<path d="M255.362 103.312C268.854 89.819 268.854 67.9427 255.362 54.4497C241.869 40.9568 219.992 40.9568 206.499 54.4497C193.006 67.9427 193.006 89.819 206.499 103.312C219.992 116.805 241.869 116.805 255.362 103.312Z" fill="#FCFCFC"/>
</mask>
<g mask="url(#mask0_151_2944)">
<path d="M303.536 84.8076L298.492 98.1331C295.065 106.7 286.404 115.552 278.408 112.696L252.899 103.463C250.044 102.036 246.998 101.084 244.143 100.798C243.952 100.703 243.857 100.703 243.857 100.703L236.909 97.2765L221.68 100.132L216.254 104.13C202.643 106.7 173.803 115.837 173.803 115.837C179.799 120.025 184.939 127.735 184.939 127.735C184.939 127.735 183.797 129.543 182.274 132.113C186.367 137.253 190.841 142.583 198.074 145.724C199.693 146.486 203.119 147.247 205.118 147.913L199.978 201.596L256.231 202.548C256.231 202.548 264.797 164.38 266.415 139.918L267.462 140.299C280.598 144.868 295.065 140.204 304.964 128.972C313.055 119.835 317.052 90.4234 317.052 90.4234L303.536 84.8076Z" fill="#7AB794"/>
<path d="M236.052 83.8555L238.337 100.512C238.337 100.512 216.349 118.216 217.682 103.939L220.442 84.4266L236.052 83.8555Z" fill="#F38C84"/>
<path d="M234.624 66.7225L236.528 85.0926C236.528 85.0926 218.253 107.746 219.871 85.5685L223.773 66.1514L234.624 66.7225Z" fill="#05093D"/>
<path d="M215.588 74.718L218.729 73.8613L219.49 77.6686L216.349 78.5253C215.398 78.8108 214.446 78.1445 214.255 77.0975C213.97 76.0505 214.541 75.0035 215.588 74.718Z" fill="#F38C84" stroke="#F38C84" stroke-width="1.1297" stroke-miterlimit="10"/>
<path d="M215.873 75.6698L217.206 75.2891L217.492 76.812L216.159 77.1927C215.778 77.2879 215.398 77.0024 215.302 76.6216C215.207 76.2409 215.398 75.765 215.873 75.6698Z" fill="#CA5C3B"/>
<path d="M240.621 73.6712L237.385 74.1472L237.099 70.2447L240.335 69.7688C241.287 69.6736 242.239 70.435 242.239 71.482C242.334 72.6242 241.573 73.5761 240.621 73.6712Z" fill="#F38C84" stroke="#F38C84" stroke-width="1.1297" stroke-miterlimit="10"/>
<path d="M240.43 71.101L239.098 71.2914L239.193 72.9095L240.526 72.7191C240.906 72.624 241.287 72.2432 241.192 71.8625C241.192 71.2914 240.906 71.0059 240.43 71.101Z" fill="#CA5C3B"/>
<path d="M228.342 88.0435C220.633 88.4242 217.396 83.2844 217.301 76.7168V76.2409C217.206 69.7685 220.728 59.3936 226.724 58.9177V58.8225C232.721 58.3466 239.003 68.0552 239.098 74.5276V75.0035C239.193 81.4759 236.909 87.4724 228.342 88.0435Z" fill="#F38C84" stroke="#F38C84" stroke-width="1.1297" stroke-miterlimit="10"/>
<path d="M237.385 62.3441C237.289 62.1537 237.194 62.0586 237.194 61.8682C237.956 61.4875 238.432 61.2971 238.432 61.2971C238.432 61.2971 237.48 48.3523 236.052 48.1619C235.481 48.0668 219.586 51.7789 215.588 62.3441C215.493 62.6296 215.493 62.9152 215.588 63.2007C215.493 63.3911 215.397 63.5815 215.302 63.867C214.731 65.4851 214.636 67.2936 214.826 68.9117C214.922 69.6731 216.349 74.2419 217.111 74.3371C217.492 74.3371 219.3 68.4358 220.347 65.1996C222.155 65.3899 224.345 65.4851 226.439 65.1996C228.913 64.914 231.293 64.1526 233.387 63.3911C234.91 65.4851 238.146 69.5779 238.717 69.5779C239.288 69.5779 237.861 63.4863 237.385 62.3441Z" fill="#05093D"/>
</g>
<path d="M283.167 53.5875L283.834 55.4911C283.929 55.7767 284.214 55.9671 284.405 55.9671H286.404C287.07 55.9671 287.26 56.7285 286.784 57.1092L285.166 58.2514C284.976 58.4418 284.881 58.7273 284.976 59.0129L285.642 60.9165C285.832 61.4876 285.166 61.9635 284.69 61.678L283.072 60.5358C282.882 60.3454 282.501 60.3454 282.311 60.5358L280.693 61.678C280.217 62.0587 279.55 61.5828 279.741 60.9165L280.407 59.0129C280.502 58.7273 280.407 58.4418 280.217 58.2514L278.599 57.1092C278.123 56.7285 278.313 55.9671 278.979 55.9671H280.978C281.264 55.9671 281.549 55.7767 281.549 55.4911L282.216 53.5875C282.12 53.0164 282.977 53.0164 283.167 53.5875Z" fill="#3A5785"/>
<path d="M296.302 53.5875L296.969 55.4911C297.064 55.7767 297.349 55.9671 297.54 55.9671H299.539C300.205 55.9671 300.395 56.7285 299.919 57.1092L298.301 58.2514C298.111 58.4418 298.016 58.7273 298.111 59.0129L298.777 60.9165C298.967 61.4876 298.301 61.9635 297.825 61.678L296.207 60.5358C296.017 60.3454 295.636 60.3454 295.446 60.5358L293.828 61.678C293.352 62.0587 292.685 61.5828 292.876 60.9165L293.542 59.0129C293.637 58.7273 293.542 58.4418 293.352 58.2514L291.734 57.1092C291.258 56.7285 291.448 55.9671 292.114 55.9671H294.113C294.399 55.9671 294.684 55.7767 294.684 55.4911L295.351 53.5875C295.255 53.0164 296.112 53.0164 296.302 53.5875Z" fill="#3A5785"/>
<path d="M309.438 53.5875L310.104 55.4911C310.199 55.7767 310.485 55.9671 310.675 55.9671H312.674C313.34 55.9671 313.53 56.7285 313.055 57.1092L311.436 58.2514C311.246 58.4418 311.151 58.7273 311.246 59.0129L311.912 60.9165C312.103 61.4876 311.436 61.9635 310.961 61.678L309.342 60.5358C309.152 60.3454 308.771 60.3454 308.581 60.5358L306.963 61.678C306.487 62.0587 305.821 61.5828 306.011 60.9165L306.677 59.0129C306.773 58.7273 306.677 58.4418 306.487 58.2514L304.869 57.1092C304.393 56.7285 304.583 55.9671 305.25 55.9671H307.248C307.534 55.9671 307.82 55.7767 307.82 55.4911L308.486 53.5875C308.391 53.0164 309.152 53.0164 309.438 53.5875Z" fill="#3A5785"/>
<path d="M322.478 53.5875L323.144 55.4911C323.239 55.7767 323.525 55.9671 323.715 55.9671H325.714C326.38 55.9671 326.57 56.7285 326.095 57.1092L324.476 58.2514C324.286 58.4418 324.191 58.7273 324.286 59.0129L324.952 60.9165C325.143 61.4876 324.476 61.9635 324.001 61.678L322.382 60.5358C322.192 60.3454 321.811 60.3454 321.621 60.5358L320.003 61.678C319.527 62.0587 318.861 61.5828 319.051 60.9165L319.717 59.0129C319.813 58.7273 319.717 58.4418 319.527 58.2514L317.909 57.1092C317.433 56.7285 317.623 55.9671 318.29 55.9671H320.288C320.574 55.9671 320.86 55.7767 320.86 55.4911L321.526 53.5875C321.526 53.0164 322.287 53.0164 322.478 53.5875Z" fill="#3A5785"/>
<path d="M335.613 53.5875L336.279 55.4911C336.374 55.7767 336.66 55.9671 336.85 55.9671H338.849C339.515 55.9671 339.706 56.7285 339.23 57.1092L337.612 58.2514C337.421 58.4418 337.326 58.7273 337.421 59.0129L338.088 60.9165C338.278 61.4876 337.612 61.9635 337.136 61.678L335.518 60.5358C335.327 60.3454 334.947 60.3454 334.756 60.5358L333.138 61.678C332.662 62.0587 331.996 61.5828 332.186 60.9165L332.853 59.0129C332.948 58.7273 332.853 58.4418 332.662 58.2514L331.044 57.1092C330.568 56.7285 330.759 55.9671 331.425 55.9671H333.424C333.709 55.9671 333.995 55.7767 333.995 55.4911L334.661 53.5875C334.661 53.0164 335.423 53.0164 335.613 53.5875Z" fill="#89A8C9"/>
<path d="M346.654 75.0982H276.219C274.411 75.0982 272.888 73.5753 272.888 71.7669V70.1488C272.888 68.3403 274.411 66.8174 276.219 66.8174H346.654C348.462 66.8174 349.985 68.3403 349.985 70.1488V71.6717C349.985 73.5753 348.558 75.0982 346.654 75.0982Z" fill="#7AB794"/>
<path d="M420.23 83.5693H394.245V109.554H420.23V83.5693Z" stroke="#7AB794" stroke-width="3" stroke-miterlimit="10"/>
<path d="M190.365 126.592H418.326" stroke="white" stroke-miterlimit="10"/>
<path d="M273.364 85.4736H375.875" stroke="#7AB794" stroke-width="3" stroke-miterlimit="10"/>
<path d="M273.364 96.7998H375.875" stroke="#7AB794" stroke-width="3" stroke-miterlimit="10"/>
<path d="M273.364 108.222H375.875" stroke="#7AB794" stroke-width="3" stroke-miterlimit="10"/>
<path d="M255.325 202.031C268.818 188.538 268.818 166.661 255.325 153.168C241.832 139.676 219.956 139.676 206.463 153.168C192.97 166.661 192.97 188.538 206.463 202.031C219.956 215.524 241.832 215.524 255.325 202.031Z" fill="#FCFCFC"/>
<mask id="mask1_151_2944" style="mask-type:alpha" maskUnits="userSpaceOnUse" x="196" y="143" width="70" height="70">
<path d="M255.325 202.031C268.818 188.538 268.818 166.661 255.325 153.168C241.832 139.676 219.956 139.676 206.463 153.168C192.97 166.661 192.97 188.538 206.463 202.031C219.956 215.524 241.832 215.524 255.325 202.031Z" fill="#FCFCFC"/>
</mask>
<g mask="url(#mask1_151_2944)">
<path d="M219.015 159.907C219.681 156.671 221.68 150.484 226.915 149.151C232.054 147.819 236.528 148.199 241.573 151.626C251.186 158.289 245.285 192.84 245.285 192.84C245.285 192.84 241.668 200.74 215.017 190.46C215.112 190.365 218.158 164.19 219.015 159.907Z" fill="#05093D"/>
<path d="M223.393 172.281C223.393 172.281 220.823 192.079 220.633 193.697C220.633 193.697 229.199 203.977 237.956 195.125C237.956 195.125 236.433 190.366 233.768 177.992L223.393 172.281Z" fill="#FBB78B" stroke="#FBB78B" stroke-width="1.2036" stroke-miterlimit="10" stroke-linecap="round" stroke-linejoin="round"/>
<path d="M230.341 199.693C230.341 199.693 229.484 203.881 238.241 195.124C238.241 195.124 237.48 191.127 236.909 188.938L230.341 199.693Z" fill="#05093D"/>
<path d="M234.434 178.087C233.672 180.657 229.294 182.846 226.819 182.275C223.869 181.609 222.536 176.374 222.822 174.089C223.012 172.281 228.152 171.234 230.532 171.9C233.006 172.757 235.195 175.517 234.434 178.087Z" fill="#05093D"/>
<path d="M219.586 162.382L223.012 162.953L222.346 166.76L218.919 166.284C217.872 166.094 217.111 165.047 217.301 164C217.492 162.953 218.539 162.191 219.586 162.382Z" fill="#FBB78B" stroke="#FBB78B" stroke-width="1.1709" stroke-miterlimit="10"/>
<path d="M219.205 163.428L220.633 163.714L220.347 165.332L218.919 165.046C218.443 164.951 218.158 164.571 218.253 164.095C218.348 163.619 218.824 163.333 219.205 163.428Z" fill="#E6795C" stroke="#E6795C" stroke-width="1.1586" stroke-miterlimit="10"/>
<path d="M241.953 170.472L238.622 169.425L239.764 165.713L243.096 166.76C244.143 167.045 244.714 168.188 244.333 169.235C244.047 170.186 243 170.758 241.953 170.472Z" fill="#FBB78B" stroke="#FBB78B" stroke-width="1.1709" stroke-miterlimit="10"/>
<path d="M242.81 167.807L241.478 167.331L241.002 168.854L242.334 169.33C242.715 169.425 243.191 169.235 243.381 168.854C243.476 168.378 243.286 167.902 242.81 167.807Z" fill="#E6795C" stroke="#E6795C" stroke-width="1.1586" stroke-miterlimit="10"/>
<path d="M235.005 154.672C241.192 156.671 243.571 163.048 241.668 169.235L241.477 169.711C239.479 175.897 232.911 179.895 227.676 178.087C223.678 176.564 218.253 168.949 220.252 162.762L220.442 162.286C222.346 156.195 228.818 152.768 235.005 154.672Z" fill="#FBB78B" stroke="#FBB78B" stroke-width="1.1709" stroke-miterlimit="10"/>
<path d="M227.771 154.005C223.107 161.715 243.096 166.474 243.096 166.474C243.096 166.474 246.237 151.435 229.58 150.96C218.919 150.674 228.247 153.244 227.771 154.005Z" fill="#05093D"/>
<path d="M229.199 153.815C229.199 153.815 224.345 160.668 223.107 161.81C221.68 163.143 219.49 161.62 219.49 161.62C219.49 161.62 220.252 150.96 229.199 153.815Z" fill="#05093D"/>
<path d="M247.379 175.707C247.379 177.991 245.57 179.8 243.286 179.8C241.002 179.8 239.193 177.991 239.193 175.707C239.193 173.423 241.002 171.614 243.286 171.614C245.57 171.614 247.379 173.423 247.379 175.707Z" fill="#7AB794"/>
<path d="M243.571 171.138C243.571 171.614 243.191 171.995 242.715 171.995C242.239 171.995 241.858 171.614 241.858 171.138C241.858 170.662 242.239 170.281 242.715 170.281C243.191 170.281 243.571 170.662 243.571 171.138Z" fill="#8B5086"/>
<path d="M220.252 172.756C219.205 174.755 216.73 175.421 214.731 174.374C212.732 173.327 212.066 170.852 213.113 168.854C214.16 166.855 216.635 166.188 218.634 167.235C220.537 168.282 221.299 170.757 220.252 172.756Z" fill="#7AB794"/>
<path d="M219.014 166.855C218.824 167.236 218.348 167.426 217.872 167.14C217.492 166.95 217.301 166.474 217.587 165.998C217.777 165.618 218.253 165.427 218.729 165.713C219.11 165.903 219.205 166.474 219.014 166.855Z" fill="#8B5086"/>
<path d="M264.892 216.159L256.136 194.648C253.09 189.984 250.33 188.652 246.617 189.128C245.38 189.318 244.428 189.604 243.572 190.079L237.575 191.222C228.818 197.123 221.109 188.461 221.109 188.461C214.446 183.226 200.168 193.22 200.168 193.22L201.787 202.453C201.787 202.453 207.973 225.487 207.973 226.249C208.354 233.483 207.878 246.047 207.973 245.856C208.069 245.666 246.808 250.806 247.093 250.235C247.379 249.664 247.474 245.285 248.14 229.485C248.236 227.391 248.236 225.392 248.236 223.298L264.892 216.159Z" fill="#8B5086"/>
<path d="M227.486 247.474C215.969 238.146 203.595 226.725 202.833 210.829C202.643 210.924 202.357 211.115 202.167 211.21C209.02 214.161 216.159 217.206 221.775 222.346C224.63 225.011 227.105 228.152 229.294 231.388C231.388 234.53 233.482 237.766 235.195 241.192C237.289 245.19 238.907 249.283 239.859 253.756C239.954 254.327 240.906 254.137 240.716 253.471C239.098 245.666 235.1 238.622 230.722 231.96C228.628 228.819 226.439 225.678 223.773 223.012C221.108 220.347 217.967 218.063 214.731 216.159C210.829 213.97 206.736 212.162 202.643 210.448C202.357 210.353 201.882 210.448 201.977 210.829C202.738 226.915 215.112 238.718 226.914 248.141C227.295 248.521 227.962 247.855 227.486 247.474Z" fill="white"/>
<path d="M197.408 181.799C207.307 198.075 218.063 214.922 234.91 224.726C239.288 227.296 244.047 229.199 248.997 230.437C249.378 230.532 249.663 230.151 249.568 229.771C241.478 212.162 229.675 196.266 215.112 183.512C211.019 179.895 206.736 176.183 201.596 174.089C201.025 173.899 200.835 174.755 201.311 174.946C205.975 176.944 209.972 180.276 213.779 183.607C217.301 186.653 220.728 189.984 223.964 193.411C230.436 200.359 236.242 207.974 241.192 216.064C243.952 220.633 246.522 225.392 248.711 230.247C248.902 230.056 249.092 229.771 249.282 229.58C230.817 225.107 217.301 210.639 207.117 195.505C203.976 190.936 201.12 186.177 198.265 181.418C197.884 180.847 197.123 181.323 197.408 181.799Z" fill="white"/>
<path d="M240.621 190.746C242.144 197.98 245.761 204.833 251.472 209.592C257.182 214.351 264.702 216.636 272.031 215.589C272.602 215.494 272.412 214.637 271.745 214.732C264.512 215.779 256.992 213.304 251.567 208.45C246.236 203.786 242.905 197.314 241.573 190.461C241.382 189.89 240.43 190.175 240.621 190.746Z" fill="white"/>
</g>
<path d="M283.167 152.387L283.834 154.291C283.929 154.576 284.214 154.767 284.405 154.767H286.404C287.07 154.767 287.26 155.528 286.784 155.909L285.166 157.051C284.976 157.242 284.881 157.527 284.976 157.813L285.642 159.716C285.832 160.287 285.166 160.763 284.69 160.478L283.072 159.336C282.882 159.145 282.501 159.145 282.311 159.336L280.693 160.478C280.217 160.859 279.55 160.383 279.741 159.716L280.407 157.813C280.502 157.527 280.407 157.242 280.217 157.051L278.599 155.909C278.123 155.528 278.313 154.767 278.979 154.767H280.978C281.264 154.767 281.549 154.576 281.549 154.291L282.216 152.387C282.12 151.816 282.977 151.816 283.167 152.387Z" fill="#3A5785"/>
<path d="M296.302 152.387L296.969 154.291C297.064 154.576 297.349 154.767 297.54 154.767H299.539C300.205 154.767 300.395 155.528 299.919 155.909L298.301 157.051C298.111 157.242 298.016 157.527 298.111 157.813L298.777 159.716C298.967 160.287 298.301 160.763 297.825 160.478L296.207 159.336C296.017 159.145 295.636 159.145 295.446 159.336L293.828 160.478C293.352 160.859 292.685 160.383 292.876 159.716L293.542 157.813C293.637 157.527 293.542 157.242 293.352 157.051L291.734 155.909C291.258 155.528 291.448 154.767 292.114 154.767H294.113C294.399 154.767 294.684 154.576 294.684 154.291L295.351 152.387C295.255 151.816 296.112 151.816 296.302 152.387Z" fill="#3A5785"/>
<path d="M309.438 152.387L310.104 154.291C310.199 154.576 310.485 154.767 310.675 154.767H312.674C313.34 154.767 313.53 155.528 313.055 155.909L311.436 157.051C311.246 157.242 311.151 157.527 311.246 157.813L311.912 159.716C312.103 160.287 311.436 160.763 310.961 160.478L309.342 159.336C309.152 159.145 308.771 159.145 308.581 159.336L306.963 160.478C306.487 160.859 305.821 160.383 306.011 159.716L306.677 157.813C306.773 157.527 306.677 157.242 306.487 157.051L304.869 155.909C304.393 155.528 304.583 154.767 305.25 154.767H307.248C307.534 154.767 307.82 154.576 307.82 154.291L308.486 152.387C308.391 151.816 309.152 151.816 309.438 152.387Z" fill="#3A5785"/>
<path d="M322.478 152.387L323.144 154.291C323.239 154.576 323.525 154.767 323.715 154.767H325.714C326.38 154.767 326.57 155.528 326.095 155.909L324.476 157.051C324.286 157.242 324.191 157.527 324.286 157.813L324.952 159.716C325.143 160.287 324.476 160.763 324.001 160.478L322.382 159.336C322.192 159.145 321.811 159.145 321.621 159.336L320.003 160.478C319.527 160.859 318.861 160.383 319.051 159.716L319.717 157.813C319.813 157.527 319.717 157.242 319.527 157.051L317.909 155.909C317.433 155.528 317.623 154.767 318.29 154.767H320.288C320.574 154.767 320.86 154.576 320.86 154.291L321.526 152.387C321.526 151.816 322.287 151.816 322.478 152.387Z" fill="#3A5785"/>
<path d="M335.613 152.387L336.279 154.291C336.374 154.576 336.66 154.767 336.85 154.767H338.849C339.515 154.767 339.706 155.528 339.23 155.909L337.612 157.051C337.421 157.242 337.326 157.527 337.421 157.813L338.088 159.716C338.278 160.287 337.612 160.763 337.136 160.478L335.518 159.336C335.327 159.145 334.947 159.145 334.756 159.336L333.138 160.478C332.662 160.859 331.996 160.383 332.186 159.716L332.853 157.813C332.948 157.527 332.853 157.242 332.662 157.051L331.044 155.909C330.568 155.528 330.759 154.767 331.425 154.767H333.424C333.709 154.767 333.995 154.576 333.995 154.291L334.661 152.387C334.661 151.816 335.423 151.816 335.613 152.387Z" fill="#3A5785"/>
<path d="M346.654 173.803H276.219C274.411 173.803 272.888 172.28 272.888 170.471V168.949C272.888 167.14 274.411 165.617 276.219 165.617H346.654C348.462 165.617 349.985 167.14 349.985 168.949V170.471C349.985 172.28 348.558 173.803 346.654 173.803Z" fill="#7AB794"/>
<path d="M420.23 182.274H394.245V208.259H420.23V182.274Z" stroke="#7AB794" stroke-width="3" stroke-miterlimit="10"/>
<path d="M190.365 225.392H418.326" stroke="white" stroke-miterlimit="10"/>
<path d="M273.364 184.178H375.875" stroke="#7AB794" stroke-width="3" stroke-miterlimit="10"/>
<path d="M273.364 195.6H375.875" stroke="#7AB794" stroke-width="3" stroke-miterlimit="10"/>
<path d="M273.364 207.021H375.875" stroke="#7AB794" stroke-width="3" stroke-miterlimit="10"/>
<path d="M255.092 301.445C268.585 287.952 268.585 266.075 255.092 252.583C241.599 239.09 219.722 239.09 206.229 252.583C192.737 266.075 192.737 287.952 206.229 301.445C219.722 314.938 241.599 314.938 255.092 301.445Z" fill="#FCFCFC"/>
<mask id="mask2_151_2944" style="mask-type:alpha" maskUnits="userSpaceOnUse" x="196" y="242" width="70" height="70">
<path d="M255.313 301.405C268.806 287.912 268.806 266.035 255.313 252.542C241.82 239.05 219.943 239.05 206.45 252.542C192.957 266.035 192.957 287.912 206.45 301.405C219.943 314.898 241.82 314.898 255.313 301.405Z" fill="#FCFCFC"/>
</mask>
<g mask="url(#mask2_151_2944)">
<path d="M225.963 251.758C225.963 251.758 212.161 257.183 207.973 272.032C203.69 286.975 197.789 300.491 186.938 301.348C175.992 302.109 164.57 309.914 163.904 312.199C163.238 314.578 199.121 366.072 229.009 353.412L232.816 326.286L233.292 347.416C233.292 347.416 234.244 351.414 244.809 344.465C255.374 337.422 258.61 242.525 225.963 251.758Z" fill="#A34E65"/>
<path d="M233.578 251.472C227.486 249.949 220.918 251.186 215.683 254.613C210.067 258.325 207.022 264.226 205.499 270.603C203.881 277.266 203.595 284.31 201.216 290.782C199.978 294.304 197.979 297.635 194.648 299.348C191.507 300.967 187.7 301.252 184.178 301.157C179.8 301.157 175.231 300.681 170.948 302.014C167.331 303.061 163.999 305.345 161.62 308.296C160.858 309.247 162.191 310.675 162.952 309.628C165.046 306.963 167.902 304.869 171.233 303.917C175.04 302.775 179.133 303.061 183.036 303.061C189.794 303.156 196.837 302.299 200.74 296.112C207.973 284.786 203.69 268.7 213.589 258.706C218.634 253.661 226.248 251.472 233.102 253.185C234.244 253.661 234.72 251.757 233.578 251.472Z" fill="#A34E65"/>
<path d="M237.29 274.03C237.29 274.03 239.669 294.685 240.05 296.303C240.05 296.303 233.768 303.346 224.726 298.302C224.726 298.302 225.677 292.21 227.295 279.551L237.29 274.03Z" fill="#FFBBAA" stroke="#FFBBAA" stroke-width="1.2122" stroke-miterlimit="10" stroke-linecap="round" stroke-linejoin="round"/>
<path d="M228.533 260.8C224.535 261.657 223.107 267.748 224.63 274.411L224.726 274.887C226.153 281.455 230.341 284.881 233.673 285.072C236.433 285.262 239.384 278.79 237.956 272.222L238.337 271.175C236.814 264.512 232.531 259.848 228.533 260.8Z" fill="#05093D"/>
<path d="M220.442 272.317L223.774 271.175L222.536 267.463L219.205 268.605C218.158 268.986 217.587 270.033 217.968 271.08C218.348 272.127 219.491 272.698 220.442 272.317Z" fill="#FFBBAA" stroke="#FFBBAA" stroke-width="1.1792" stroke-miterlimit="10"/>
<path d="M243.286 263.084L239.86 264.036L240.907 267.844L244.333 266.892C245.38 266.606 245.951 265.464 245.666 264.512C245.38 263.37 244.333 262.799 243.286 263.084Z" fill="#FFBBAA" stroke="#FFBBAA" stroke-width="1.1792" stroke-miterlimit="10"/>
<path d="M243.667 264.036L242.239 264.417L242.715 265.94L244.143 265.559C244.619 265.464 244.809 264.988 244.714 264.607C244.619 264.226 244.143 263.941 243.667 264.036Z" fill="#F08992" stroke="#F08992" stroke-width="1.1746" stroke-miterlimit="10" stroke-linecap="round" stroke-linejoin="round"/>
<path d="M219.491 269.652L220.823 269.176L221.394 270.699L220.062 271.175C219.681 271.365 219.205 271.079 219.015 270.699C218.92 270.318 219.11 269.842 219.491 269.652Z" fill="#F08992" stroke="#F08992" stroke-width="1.1746" stroke-miterlimit="10" stroke-linecap="round" stroke-linejoin="round"/>
<path d="M228.628 256.802C222.251 258.325 219.3 264.417 220.728 270.604L220.823 271.08C222.251 277.266 230.056 282.121 234.149 281.074C238.337 279.932 244.143 271.936 242.715 265.749L242.62 265.274C241.192 259.087 234.91 255.279 228.628 256.802Z" fill="#FFBBAA" stroke="#FFBBAA" stroke-width="1.1626" stroke-miterlimit="10"/>
<path d="M240.24 295.066C238.146 298.397 231.388 301.157 224.916 291.258C224.916 291.258 214.351 284.5 206.641 297.065C199.693 308.391 199.693 308.772 199.693 308.772L214.065 321.05L215.017 347.702L256.136 349.034C256.136 349.034 251.757 329.998 252.519 326.952C252.614 326.476 265.178 305.917 265.178 305.917C265.178 305.917 248.711 281.455 240.24 295.066Z" fill="#272727"/>
<path d="M219.586 267.558C219.586 267.558 226.82 265.274 228.533 256.802C228.533 256.802 236.243 264.131 242.429 262.799C242.429 262.799 236.338 251.567 227.962 254.994C219.586 258.421 219.681 263.56 219.586 267.558Z" fill="#A34E65"/>
</g>
<path d="M283.168 251.757L283.834 253.661C283.929 253.947 284.215 254.137 284.405 254.137H286.404C287.07 254.137 287.26 254.898 286.784 255.279L285.166 256.421C284.976 256.612 284.881 256.897 284.976 257.183L285.642 259.086C285.833 259.658 285.166 260.133 284.691 259.848L283.072 258.706C282.882 258.515 282.501 258.515 282.311 258.706L280.693 259.848C280.217 260.229 279.551 259.753 279.741 259.086L280.407 257.183C280.502 256.897 280.407 256.612 280.217 256.421L278.599 255.279C278.123 254.898 278.313 254.137 278.98 254.137H280.978C281.264 254.137 281.549 253.947 281.549 253.661L282.216 251.757C282.121 251.186 282.977 251.186 283.168 251.757Z" fill="#3A5785"/>
<path d="M296.303 251.757L296.969 253.661C297.064 253.947 297.35 254.137 297.54 254.137H299.539C300.205 254.137 300.396 254.898 299.92 255.279L298.302 256.421C298.111 256.612 298.016 256.897 298.111 257.183L298.778 259.086C298.968 259.658 298.302 260.133 297.826 259.848L296.017 258.611C295.827 258.42 295.446 258.42 295.256 258.611L293.638 259.753C293.162 260.133 292.495 259.658 292.686 258.991L293.352 257.088C293.447 256.802 293.352 256.517 293.162 256.326L291.544 255.184C291.068 254.803 291.258 254.042 291.924 254.042H293.923C294.209 254.042 294.494 253.851 294.494 253.566L295.161 251.662C295.256 251.186 296.112 251.186 296.303 251.757Z" fill="#3A5785"/>
<path d="M309.438 251.757L310.104 253.661C310.199 253.947 310.485 254.137 310.675 254.137H312.674C313.34 254.137 313.531 254.898 313.055 255.279L311.437 256.421C311.246 256.612 311.151 256.897 311.246 257.183L311.913 259.086C312.103 259.658 311.437 260.133 310.961 259.848L309.343 258.706C309.152 258.515 308.772 258.515 308.581 258.706L306.963 259.848C306.487 260.229 305.821 259.753 306.011 259.086L306.678 257.183C306.773 256.897 306.678 256.612 306.487 256.421L304.869 255.279C304.393 254.898 304.584 254.137 305.25 254.137H307.249C307.534 254.137 307.82 253.947 307.82 253.661L308.486 251.757C308.391 251.186 309.152 251.186 309.438 251.757Z" fill="#3A5785"/>
<path d="M322.478 251.757L323.144 253.661C323.239 253.947 323.525 254.137 323.715 254.137H325.714C326.38 254.137 326.571 254.898 326.095 255.279L324.477 256.421C324.286 256.612 324.191 256.897 324.286 257.183L324.953 259.086C325.143 259.658 324.477 260.133 324.001 259.848L322.383 258.706C322.192 258.515 321.812 258.515 321.621 258.706L320.003 259.848C319.527 260.229 318.861 259.753 319.051 259.086L319.718 257.183C319.813 256.897 319.718 256.612 319.527 256.421L317.909 255.279C317.433 254.898 317.624 254.137 318.29 254.137H320.289C320.574 254.137 320.86 253.947 320.86 253.661L321.526 251.757C321.526 251.186 322.288 251.186 322.478 251.757Z" fill="#89A8C9"/>
<path d="M335.613 251.757L336.279 253.661C336.375 253.947 336.66 254.137 336.851 254.137H338.849C339.516 254.137 339.706 254.898 339.23 255.279L337.612 256.421C337.422 256.612 337.326 256.897 337.422 257.183L338.088 259.086C338.278 259.658 337.612 260.133 337.136 259.848L335.518 258.706C335.328 258.515 334.947 258.515 334.757 258.706L333.138 259.848C332.662 260.229 331.996 259.753 332.187 259.086L332.853 257.183C332.948 256.897 332.853 256.612 332.662 256.421L331.044 255.279C330.568 254.898 330.759 254.137 331.425 254.137H333.424C333.709 254.137 333.995 253.947 333.995 253.661L334.661 251.757C334.661 251.186 335.423 251.186 335.613 251.757Z" fill="#89A8C9"/>
<path d="M346.654 273.173H276.219C274.411 273.173 272.888 271.65 272.888 269.842V268.319C272.888 266.51 274.411 264.987 276.219 264.987H346.654C348.462 264.987 349.985 266.51 349.985 268.319V269.842C349.985 271.745 348.558 273.173 346.654 273.173Z" fill="#7AB794"/>
<path d="M420.23 281.739H394.245V307.724H420.23V281.739Z" stroke="#7AB794" stroke-width="3" stroke-miterlimit="10"/>
<path d="M190.365 324.762H418.326" stroke="white" stroke-miterlimit="10"/>
<path d="M273.364 283.548H375.875" stroke="#7AB794" stroke-width="3" stroke-miterlimit="10"/>
<path d="M273.364 294.97H375.875" stroke="#7AB794" stroke-width="3" stroke-miterlimit="10"/>
<path d="M273.364 306.392H375.875" stroke="#7AB794" stroke-width="3" stroke-miterlimit="10"/>
<path d="M205.879 354.459C214.827 354.459 227.676 342.466 227.676 333.614H473.627C473.627 333.614 472.675 354.459 448.975 354.459H205.879Z" fill="#60A67E"/>
<path fill-rule="evenodd" clip-rule="evenodd" d="M498.257 101.551C496.106 109.477 493.303 127.292 496.164 130.087H514.259C514.261 130.055 514.263 130.023 514.265 129.991C520.972 129.249 526.188 123.562 526.188 116.657V103.553C526.188 96.1442 520.182 90.1377 512.773 90.1377H511.525C504.796 90.1377 499.224 95.0913 498.257 101.551Z" fill="#191847"/>
<path fill-rule="evenodd" clip-rule="evenodd" d="M519.161 114.155C522.036 110.78 523.982 106.644 523.657 102.01C522.72 88.6558 504.131 91.5935 500.515 98.3333C496.899 105.073 497.329 122.169 502.002 123.374C503.866 123.854 507.836 122.677 511.877 120.242L509.701 130.59L509.341 138.185H524.316L519.161 114.155Z" fill="#D3766A"/>
<path fill-rule="evenodd" clip-rule="evenodd" d="M515.113 111.899C514.423 119.311 514.699 127.775 516.755 129.784H534.851C535.859 112.267 526.115 119.05 526.115 102.557C525.508 101.963 524.934 101.376 524.366 100.869L524.386 100.384C521.252 93.9692 517.277 90.7617 512.46 90.7617C505.234 90.7617 502.953 94.124 501.011 96.9786C502.463 101.961 508.099 102.7 513.106 105.806C513.696 105.326 514.449 105.039 515.269 105.039C517.164 105.039 518.701 106.575 518.701 108.471C518.701 110.366 517.164 111.903 515.269 111.903C515.216 111.903 515.164 111.902 515.113 111.899Z" fill="#191847"/>
<path opacity="0.1" d="M545.109 373.685C573.496 373.685 596.508 372.364 596.508 370.735C596.508 369.105 573.496 367.784 545.109 367.784C516.723 367.784 493.711 369.105 493.711 370.735C493.711 372.364 516.723 373.685 545.109 373.685Z" fill="#2C2D2C"/>
<path d="M513.128 348.844L511.319 361.503C511.319 361.503 508.464 369.974 505.799 366.643C503.134 363.407 500.469 361.693 500.469 361.693L499.612 348.463L513.128 348.844Z" fill="#D3766A"/>
<path d="M506.084 349.319L505.608 366.643C505.608 366.643 514.08 367.88 510.939 362.264L512.747 350.271L506.084 349.319Z" fill="#C06054"/>
<path d="M555.579 347.892L559.577 360.551C559.577 360.551 562.623 363.216 563.67 363.121C565.668 363.026 566.715 359.599 566.715 359.599L567.001 347.892H555.579Z" fill="#D3766A"/>
<path d="M561.29 344.465L564.05 365.405C564.05 365.405 569.761 366.928 566.62 361.217L567.287 345.226L561.29 344.465Z" fill="#C06054"/>
<path d="M499.612 361.693L488.951 370.354C488.38 370.735 488.761 371.401 489.618 371.401L505.323 371.496C505.704 371.496 506.084 371.306 506.179 371.116L507.322 368.641C507.702 367.975 508.369 367.88 508.273 368.641L508.845 371.021C508.845 371.401 512.557 371.306 512.557 370.925C512.747 368.831 512.366 361.978 511.986 360.075C511.89 359.789 511.7 359.599 511.319 359.503C510.939 359.408 510.653 359.503 510.463 359.789C509.416 360.836 505.989 363.882 504.181 363.311C502.943 362.93 501.42 362.169 500.944 361.693C500.564 361.407 499.993 361.407 499.612 361.693Z" fill="#272727"/>
<path d="M566.811 359.123L572.807 369.212C573.473 370.164 573.093 371.402 571.95 372.068C570.047 373.21 568.524 375.399 567.286 375.494C565.097 375.59 561.766 373.305 559.862 372.449C558.53 371.878 557.578 371.021 557.673 369.974L559.196 359.789C559.196 359.694 559.482 359.599 559.577 359.694L561.861 361.788C562.623 362.455 564.717 362.359 565.192 361.598C565.573 361.027 566.43 359.123 566.43 359.123C566.525 359.028 566.715 359.028 566.811 359.123Z" fill="#272727"/>
<path d="M534.734 180.941C539.589 189.603 542.158 195.885 545.014 206.831C548.25 219.585 583.468 327.141 584.99 350.271C580.993 351.222 554.342 351.127 551.867 350.937C543.777 327.808 523.408 252.899 519.981 238.336C519.41 236.147 515.983 236.623 516.269 238.907C518.268 255.469 528.833 325.428 534.068 351.032C531.974 352.079 501.42 351.889 499.041 351.603C496.376 323.144 482.384 215.302 503.514 180.275C513.128 178.847 524.93 180.656 534.734 180.941Z" fill="#272727"/>
<path d="M504.657 183.987C504.657 183.987 495.995 205.308 495.995 235.386C495.995 265.463 505.894 341.704 505.894 341.704" stroke="white" stroke-width="0.3961" stroke-miterlimit="10"/>
<path d="M564.336 341.704L529.975 183.035" stroke="white" stroke-width="0.3961" stroke-miterlimit="10"/>
<path d="M523.884 183.892C523.884 183.892 524.169 211.494 536.543 209.305" stroke="white" stroke-width="0.3961" stroke-miterlimit="10"/>
<path opacity="0.21" d="M503.61 184.559L543.396 214.541C543.396 214.541 545.014 198.36 537.97 185.035L503.61 184.559Z" fill="black"/>
<path d="M498.279 210.543C510.653 212.732 508.654 185.319 508.654 185.319" stroke="white" stroke-width="0.3961" stroke-miterlimit="10"/>
<path d="M522.075 133.827C522.075 133.827 524.645 133.065 524.169 133.636C523.788 134.207 522.836 134.778 521.98 135.35L522.075 133.827Z" fill="#C20034"/>
<path d="M532.164 341.895H497.803" stroke="white" stroke-width="0.3961" stroke-miterlimit="10"/>
<path d="M583.849 341.609L548.345 341.895" stroke="white" stroke-width="0.3961" stroke-miterlimit="10"/>
<path d="M546.537 232.626C546.537 232.436 546.727 230.151 546.727 230.151L545.68 233.388L546.537 232.626Z" fill="#D15449"/>
<path d="M540.16 235.767L539.493 236.338C539.493 236.338 540.255 237.67 540.54 237.575C540.54 237.575 539.969 237.004 540.16 235.767Z" fill="#D15449"/>
<path d="M465.251 157.05C465.251 157.05 491.236 193.124 497.423 188.841C497.423 188.841 504.466 183.892 500.944 163.713C500.944 161.714 500.944 160.382 501.04 160.096C501.04 160.096 502.563 140.203 505.799 136.11C506.179 135.634 507.226 134.778 507.131 134.778C497.137 132.303 493.33 157.431 490.57 169.043C490.474 169.519 471.343 150.959 471.343 150.959C471.343 150.959 461.349 137.728 460.682 138.49C459.635 139.537 463.538 145.438 463.538 145.438C463.538 145.438 463.252 146.104 462.491 146.485C461.729 146.866 461.349 147.342 461.063 148.294C460.778 149.341 459.826 149.912 459.635 150.483C459.35 151.149 463.157 155.527 465.251 157.05Z" fill="#D3766A"/>
<path d="M470.867 150.863C470.867 150.863 468.868 145.152 468.011 145.343C467.155 145.533 463.443 147.151 463.538 148.579C463.633 150.006 466.774 148.864 466.774 148.864C466.774 148.864 466.203 152.1 467.821 152.481C469.439 152.767 470.867 150.863 470.867 150.863Z" fill="#D3766A"/>
<path d="M465.917 148.484C465.917 148.484 466.013 149.912 464.87 150.198C464.87 150.198 464.585 151.721 463.062 151.34C463.062 151.34 463.443 152.006 462.586 152.196C462.586 152.196 466.488 156.48 465.917 148.484Z" fill="#AE564D"/>
<path d="M466.679 145.724C466.013 146.2 465.251 146.675 464.585 147.056C464.204 147.247 463.823 147.437 463.538 147.722C463.443 147.818 463.252 148.008 463.252 148.008C463.252 148.103 463.252 148.198 463.347 148.294C463.538 148.484 463.919 148.674 464.299 148.769C464.68 148.865 465.061 148.865 465.537 148.865C465.727 148.865 465.917 148.769 466.298 149.055C466.489 149.245 466.393 149.436 466.393 149.531L466.298 149.816C466.203 150.197 466.013 150.673 465.917 151.054L466.108 149.816C466.108 149.626 466.298 149.341 466.108 149.245C465.917 149.15 465.727 149.15 465.537 149.15C464.68 149.15 463.823 149.055 463.157 148.484C462.967 148.294 462.872 148.103 462.967 147.913C463.062 147.722 463.157 147.532 463.347 147.437C463.728 147.151 464.109 147.056 464.49 146.866L466.679 145.724Z" fill="#AF4132"/>
<path d="M463.347 145.248C463.538 145.248 463.728 145.343 463.823 145.438C464.014 145.534 464.109 145.629 464.204 145.724C464.299 145.819 464.394 145.914 464.49 146.105C464.585 146.295 464.585 146.39 464.585 146.581C464.204 146.2 463.728 145.724 463.347 145.248Z" fill="#AF4132"/>
<path d="M461.634 147.438C462.015 147.723 462.396 147.913 462.681 148.199C463.062 148.485 463.348 148.77 463.728 148.96C464.014 149.246 464.395 149.532 464.775 149.722C464.966 149.817 465.061 149.912 465.251 150.007C465.442 150.103 465.632 150.007 465.822 149.912C465.537 150.293 464.966 150.198 464.585 150.007C464.204 149.817 463.823 149.532 463.443 149.246C462.776 148.77 462.205 148.104 461.634 147.438Z" fill="#AF4132"/>
<path d="M464.966 150.197C464.966 150.673 464.966 151.34 464.395 151.72C464.109 151.911 463.728 151.911 463.443 151.815C463.157 151.72 462.872 151.625 462.681 151.435C462.205 151.054 461.92 150.673 461.539 150.293C461.253 149.912 460.968 149.436 460.682 148.96C460.968 149.341 461.349 149.721 461.729 150.102C462.11 150.483 462.396 150.864 462.872 151.149C463.252 151.435 463.823 151.72 464.299 151.435C464.68 151.244 464.775 150.673 464.966 150.197Z" fill="#AF4132"/>
<path d="M463.157 151.149C463.252 151.435 463.252 151.816 463.157 152.101C463.062 152.292 463.062 152.482 462.872 152.577C462.776 152.672 462.586 152.768 462.586 152.768C462.491 152.768 462.396 152.863 462.3 152.863C461.92 152.958 461.539 152.768 461.253 152.672C461.158 152.577 460.968 152.577 460.777 152.387C460.587 152.292 460.587 152.101 460.492 151.911C460.682 152.196 460.968 152.292 461.253 152.387C461.539 152.482 461.825 152.577 462.11 152.577C462.3 152.577 462.396 152.577 462.491 152.482C462.586 152.387 462.681 152.196 462.776 152.101C463.062 151.721 463.157 151.435 463.157 151.149Z" fill="#AF4132"/>
<path d="M507.036 134.778C507.036 134.778 500.564 133.826 497.994 139.156C495.424 144.391 489.713 167.996 489.713 167.996L473.818 152.767L467.631 163.999C467.631 163.999 490.284 192.649 496.852 190.555C503.229 188.556 507.036 142.012 507.036 134.778Z" fill="#7AB794"/>
<path d="M505.989 135.92C506.275 136.586 497.994 156.384 498.279 163.047C498.66 169.805 503.229 181.132 502.848 182.179C502.848 182.179 508.083 186.271 536.923 181.798C545.775 173.993 537.97 147.627 535.02 139.251C535.02 139.251 529.309 136.396 526.929 136.205C526.929 136.205 517.316 139.251 505.989 135.92Z" fill="#7AB794"/>
<path d="M527.024 136.205L522.932 130.875C522.932 130.875 518.077 134.302 510.748 136.871L510.844 138.775C511.129 142.582 515.222 144.772 518.458 142.868C521.885 140.869 525.502 138.394 527.024 136.205Z" fill="#FFEBF1"/>
<path d="M509.796 130.59C509.796 130.59 508.559 135.254 510.843 136.967L510.177 138.585C509.416 140.774 506.179 140.394 505.989 138.109C505.894 137.157 505.894 136.396 506.084 135.73L509.796 130.59Z" fill="#FFEBF1"/>
<path d="M530.356 242.144L567.667 218.253L552.153 194.077L519.886 214.732C517.125 216.54 516.269 220.252 518.077 223.108L530.356 242.144Z" fill="#8B5086"/>
<path d="M544.348 157.336C555.484 219.586 548.25 231.483 547.489 231.959C546.537 232.53 541.397 237.385 540.731 237.575C539.398 238.051 540.826 231.674 540.636 228.342C540.636 227.771 540.445 230.436 540.35 231.674L540.16 234.244C538.637 233.577 538.637 230.532 538.351 229.485C538.066 228.152 538.256 227.295 538.446 226.915C539.113 225.392 540.54 222.536 540.731 219.871C540.826 218.348 530.261 167.711 528.452 160.287C525.882 150.198 529.118 138.586 532.64 138.205C537.209 137.729 543.396 152.197 544.348 157.336Z" fill="#D3766A"/>
<path d="M552.153 216.254C551.677 214.35 554.056 177.991 545.966 154.29C542.349 143.63 537.114 137.729 532.735 138.204C529.214 138.585 525.977 150.197 528.547 160.287C530.451 167.711 534.354 200.93 537.59 217.872L552.153 216.254Z" fill="#7AB794"/>
<path d="M537.399 88.5195L544.824 81.0953H572.807C578.518 81.0953 583.087 76.5265 583.087 70.8156V68.6264C583.087 62.9154 578.518 58.3467 572.807 58.3467H547.679C541.968 58.3467 537.399 62.9154 537.399 68.6264V88.5195Z" fill="#8B5086"/>
<path d="M568.239 69.3883C568.239 70.816 569.381 71.9582 570.808 71.9582C572.236 71.9582 573.378 70.816 573.378 69.3883C573.378 67.9605 572.236 66.8184 570.808 66.8184C569.381 66.8184 568.239 67.9605 568.239 69.3883Z" fill="#FAFAFA"/>
<path d="M558.815 69.3883C558.815 70.816 559.957 71.9582 561.385 71.9582C562.813 71.9582 563.955 70.816 563.955 69.3883C563.955 67.9605 562.813 66.8184 561.385 66.8184C559.957 66.8184 558.815 67.9605 558.815 69.3883Z" fill="#FAFAFA"/>
<path d="M549.392 69.3883C549.392 70.816 550.535 71.9582 551.962 71.9582C553.39 71.9582 554.532 70.816 554.532 69.3883C554.532 67.9605 553.39 66.8184 551.962 66.8184C550.535 66.8184 549.392 67.9605 549.392 69.3883Z" fill="#FAFAFA"/>
<path opacity="0.1" d="M90.0423 357.029C123.107 357.029 149.912 355.495 149.912 353.602C149.912 351.71 123.107 350.176 90.0423 350.176C56.9772 350.176 30.1726 351.71 30.1726 353.602C30.1726 355.495 56.9772 357.029 90.0423 357.029Z" fill="#2C2D2C"/>
<path d="M142.583 344.084L140.775 340.467L129.829 340.848L129.638 344.084L134.778 352.936L144.011 345.797L142.583 344.084Z" fill="#FDC19C"/>
<path d="M135.92 340.753L135.444 349.129C135.444 349.129 132.589 347.511 129.257 344.56L129.733 339.801L135.92 340.753Z" fill="#F7B084"/>
<path d="M143.249 343.894C143.249 343.894 140.013 343.799 136.301 346.654C134.112 348.367 130.685 344.846 129.733 343.989C129.543 343.799 129.257 343.989 129.162 344.275L127.83 356.077H160.287C160.667 356.077 160.953 355.697 160.953 355.221V352.746C160.953 352.365 160.763 351.984 160.477 351.889L143.249 343.894Z" fill="#272727"/>
<path d="M145.058 344.56L139.918 347.605" stroke="white" stroke-width="0.4846" stroke-miterlimit="10"/>
<path d="M147.342 345.702L142.107 348.748" stroke="white" stroke-width="0.4846" stroke-miterlimit="10"/>
<path d="M89.6618 344.084L87.8534 340.467L77.8592 338.944L76.717 344.084L81.7617 352.936L91.0896 345.797L89.6618 344.084Z" fill="#FDC19C"/>
<path d="M81.9521 340.562L82.9039 348.462C82.9039 348.462 80.0484 346.844 76.717 343.894L77.6689 339.801L81.9521 340.562Z" fill="#F7B084"/>
<path d="M90.328 343.894C90.328 343.894 87.0918 343.799 83.3797 346.654C81.1905 348.367 77.7639 344.846 76.8121 343.989C76.6217 343.799 76.3362 343.989 76.241 344.275L74.9084 356.077H107.366C107.746 356.077 108.032 355.697 108.032 355.221V352.746C108.032 352.365 107.842 351.984 107.556 351.889L90.328 343.894Z" fill="#272727"/>
<path d="M92.8979 344.75L87.6628 347.796" stroke="white" stroke-width="0.4846" stroke-miterlimit="10"/>
<path d="M95.1823 345.988L89.9473 348.939" stroke="white" stroke-width="0.4846" stroke-miterlimit="10"/>
<path d="M140.584 201.786C140.584 201.786 144.772 251.757 145.153 265.558C145.534 279.36 142.773 340.943 142.773 340.943L125.355 341.228C125.355 341.228 113.172 237.955 96.3245 204.642L140.584 201.786Z" fill="#AFB9C5"/>
<path d="M119.549 204.356C119.549 204.356 131.447 262.132 131.447 270.984C131.447 279.836 133.16 340.753 133.16 340.753" stroke="black" stroke-width="0.4846" stroke-miterlimit="10"/>
<path d="M124.499 334.565H142.964" stroke="black" stroke-width="0.4846" stroke-miterlimit="10"/>
<path d="M140.584 201.786C140.584 201.786 130.876 243.476 121.072 272.983C113.172 296.778 95.5629 342.466 95.5629 342.466L76.0505 341.99L92.993 273.744C93.8496 270.222 94.4207 266.51 94.7063 262.893C95.5629 249.092 92.7074 221.108 91.5652 203.119L140.584 201.786Z" fill="#C5CFD6"/>
<path d="M106.794 202.547C106.794 202.547 111.363 256.515 107.27 264.986C103.177 273.363 83.1892 341.799 83.1892 341.799" stroke="#020F2B" stroke-width="0.4846" stroke-miterlimit="10"/>
<path d="M78.1445 335.707H97.6569" stroke="#020F2B" stroke-width="0.4846" stroke-miterlimit="10"/>
<path d="M123.166 202.071L108.603 221.203" stroke="#020F2B" stroke-width="0.4846" stroke-miterlimit="10"/>
<path d="M117.265 123.07C117.265 123.07 116.693 118.597 120.881 117.931C125.069 117.264 136.206 114.314 164.665 124.022C164.665 124.022 169.615 96.5145 169.615 94.3253C169.71 88.5192 171.614 80.9998 176.087 77.0022C176.468 76.7166 176.753 91.3747 176.849 99.1796C176.849 99.1796 180.656 138.68 175.992 142.583C171.328 146.676 112.696 136.681 117.265 123.07Z" fill="#FDC19C"/>
<path d="M125.641 116.312C125.641 116.312 109.555 113.647 110.031 126.116C110.507 138.585 141.726 147.151 150.293 145.057L147.628 117.264L125.641 116.312Z" fill="#272727"/>
<path d="M150.198 144.677C147.723 147.627 123.261 141.345 120.596 137.347C120.596 137.347 120.215 123.641 121.262 123.451C131.827 120.5 150.198 144.677 150.198 144.677Z" fill="#1F1D1D" stroke="#020F2B" stroke-width="0.5144" stroke-miterlimit="10"/>
<path d="M102.892 114.885C102.892 114.885 81.0952 117.074 79.6675 135.159C78.3349 153.243 89.5664 203.309 89.5664 203.309L144.201 201.596L141.25 139.442C141.06 134.873 139.632 130.4 137.158 126.497C134.873 122.975 132.208 118.883 130.685 118.692L106.223 112.41L102.892 114.885Z" fill="#272727"/>
<path d="M98.3232 121.643C85.0929 116.312 80.3337 126.116 79.6675 135.158C78.3349 153.243 89.5664 203.309 89.5664 203.309L144.201 201.596" fill="#1F1D1D"/>
<path fill-rule="evenodd" clip-rule="evenodd" d="M112.663 98.4416C109.329 94.528 107.072 89.7317 107.449 84.3574C108.536 68.8725 130.091 72.279 134.284 80.0945C138.477 87.9099 137.979 107.734 132.56 109.131C130.399 109.688 125.795 108.324 121.109 105.5L124.213 121.547L116.598 120.596L108.508 111.077L112.663 98.4416Z" fill="#FDC19C"/>
<path fill-rule="evenodd" clip-rule="evenodd" d="M121.977 86.0677C122.642 95.3275 124.401 99.9574 127.253 99.9574C131.531 99.9574 135.161 97.2413 137.038 97.2413C138.407 97.2413 138.101 98.9538 137.194 100.223C136.446 101.271 132.801 102.281 132.801 103.905C132.801 105.529 135.681 104.272 135.681 105.236C135.681 106.829 136.187 109.824 133.421 109.824C130.623 109.824 122.599 108.804 121.224 104.651C120.337 101.971 119.763 96.4161 119.503 87.9876C119.333 87.9674 119.16 87.957 118.985 87.957C116.588 87.957 114.644 89.9008 114.644 92.2985C114.644 93.5157 115.145 94.6159 115.952 95.4043C114.947 96.8222 113.821 98.3034 112.531 99.8318C107.685 96.9241 104.088 88.4122 108.827 80.2352C110.136 76.2295 113.101 74.0899 116.603 73.0964C119.439 71.9098 122.384 71.7761 124.869 72.4874C129.742 72.9053 134.093 74.3911 135.326 75.2734C135.326 79.8864 134.432 81.255 126.798 81.1344C124.922 82.1251 123.48 83.8311 121.977 86.0677Z" fill="#191847"/>
<path d="M127.259 177.896C127.354 178.848 127.259 179.609 126.878 179.704C126.592 179.704 126.212 179.038 126.116 178.086C126.021 177.134 126.116 176.373 126.497 176.278C126.783 176.182 127.068 176.944 127.259 177.896Z" fill="white"/>
<path d="M122.976 129.353C123.071 130.305 122.976 131.066 122.595 131.161C122.309 131.161 121.929 130.495 121.833 129.543C121.738 128.591 121.833 127.83 122.214 127.735C122.5 127.639 122.88 128.401 122.976 129.353Z" fill="white"/>
<path d="M123.832 139.062C123.927 140.014 123.832 140.775 123.452 140.87C123.071 140.965 122.785 140.204 122.69 139.252C122.595 138.3 122.69 137.539 123.071 137.444C123.452 137.348 123.737 138.11 123.832 139.062Z" fill="white"/>
<path d="M124.689 148.77C124.784 149.722 124.689 150.483 124.308 150.578C124.023 150.578 123.642 149.912 123.547 148.96C123.452 148.008 123.547 147.247 123.928 147.152C124.213 147.056 124.594 147.818 124.689 148.77Z" fill="white"/>
<path d="M125.545 158.479C125.641 159.431 125.545 160.192 125.165 160.287C124.879 160.287 124.498 159.621 124.403 158.669C124.308 157.717 124.403 156.956 124.784 156.861C125.165 156.765 125.45 157.527 125.545 158.479Z" fill="white"/>
<path d="M126.402 168.187C126.497 169.139 126.402 169.9 126.021 169.995C125.736 169.995 125.355 169.329 125.26 168.377C125.165 167.425 125.26 166.664 125.641 166.569C125.926 166.473 126.307 167.235 126.402 168.187Z" fill="white"/>
<path d="M128.115 187.605C128.211 188.556 128.115 189.318 127.735 189.413C127.449 189.413 127.068 188.747 126.973 187.795C126.878 186.843 126.973 186.082 127.354 185.987C127.64 185.891 127.925 186.653 128.115 187.605Z" fill="white"/>
<path d="M128.972 197.313C129.067 198.265 128.972 199.026 128.591 199.121C128.306 199.121 127.925 198.455 127.83 197.503C127.735 196.551 127.83 195.79 128.211 195.695C128.496 195.599 128.782 196.361 128.972 197.313Z" fill="white"/>
<path d="M108.032 109.936L101.274 113.077L118.121 127.354L121.072 121.357L108.032 109.936Z" fill="white"/>
<path d="M122.976 114.6C123.261 114.695 125.926 116.503 125.926 116.503L126.021 125.546L121.072 121.358L122.976 114.6Z" fill="white"/>
<path d="M137.824 177.23L150.007 139.062C150.674 136.968 152.197 135.255 154.195 134.398L179.133 123.642C179.895 123.357 180.656 124.023 180.371 124.88L168.092 162.286C167.426 164.285 165.998 165.903 164.094 166.855L139.157 178.562C138.3 178.753 137.538 178.087 137.824 177.23Z" fill="#272727"/>
<path d="M139.918 179.514L152.101 141.346C152.768 139.252 154.291 137.539 156.289 136.682L181.227 125.926C181.989 125.641 182.75 126.307 182.464 127.164L170.186 164.57C169.52 166.569 168.092 168.187 166.188 169.139L141.251 180.847C140.394 181.037 139.632 180.276 139.918 179.514Z" fill="white"/>
<path d="M146.105 151.53L155.242 154.291L143.725 158.954L146.105 151.53Z" fill="#020F2B"/>
<path d="M156.861 143.44L178.467 134.207" stroke="#1D254A" stroke-width="0.5144" stroke-miterlimit="10"/>
<path d="M156.861 147.437L174.755 140.108" stroke="#1D254A" stroke-width="0.5144" stroke-miterlimit="10"/>
<path d="M147.247 170.376L170.281 160.287L168.854 165.141L145.344 175.707L147.247 170.376Z" fill="#8B5086"/>
<path d="M155.433 158.288C154.1 159.525 129.924 184.273 118.312 195.504C115.17 198.55 110.126 197.789 107.937 193.981L87.5676 159.811L106.89 144.867C106.985 145.058 117.074 162.19 119.454 170.852C120.215 173.707 121.548 173.422 123.832 172.089L141.441 161.239C141.441 161.239 141.441 158.193 141.822 156.955C142.583 154.766 146.105 151.815 146.105 151.815L144.582 156.479C144.296 157.241 143.44 157.812 144.867 158.002L156.004 149.721C156.004 149.721 157.051 149.626 156.099 150.768C155.147 151.911 154.1 153.053 154.195 153.148C154.29 153.243 157.431 151.054 157.527 151.911C157.622 152.767 155.052 154.671 155.147 154.766C155.242 154.861 158.098 152.482 158.288 153.243C158.478 154.005 156.289 155.528 156.194 155.813C156.099 156.099 158.574 154.195 158.669 154.671C158.669 154.957 156.194 157.622 155.433 158.288Z" fill="#FDC19C"/>
<path d="M101.75 129.638C101.75 129.638 96.2293 114.219 85.6641 120.691C75.0988 127.164 82.9038 158.859 88.8051 165.332L111.554 149.531L101.75 129.638Z" fill="#272727"/>
<path d="M97.3713 65.1049L89.9471 57.6807H61.8683C56.1574 57.6807 51.5886 53.0167 51.5886 47.401V45.1166C51.5886 39.4057 56.2526 34.8369 61.8683 34.8369H86.9964C92.7074 34.8369 97.2761 39.5008 97.2761 45.1166V65.1049H97.3713Z" fill="#7AB794"/>
<path d="M63.867 48.4484C65.2864 48.4484 66.437 47.2978 66.437 45.8785C66.437 44.4592 65.2864 43.3086 63.867 43.3086C62.4477 43.3086 61.2971 44.4592 61.2971 45.8785C61.2971 47.2978 62.4477 48.4484 63.867 48.4484Z" fill="#FAFAFA"/>
<path d="M75.8601 45.8785C75.8601 47.3062 74.7179 48.4484 73.2901 48.4484C71.8624 48.4484 70.7202 47.3062 70.7202 45.8785C70.7202 44.4508 71.8624 43.3086 73.2901 43.3086C74.7179 43.3086 75.8601 44.4508 75.8601 45.8785Z" fill="#FAFAFA"/>
<path d="M82.7132 48.4484C84.1326 48.4484 85.2832 47.2978 85.2832 45.8785C85.2832 44.4592 84.1326 43.3086 82.7132 43.3086C81.2939 43.3086 80.1433 44.4592 80.1433 45.8785C80.1433 47.2978 81.2939 48.4484 82.7132 48.4484Z" fill="#FAFAFA"/>
<path d="M629.419 207.039C636.004 196.773 633.021 183.113 622.756 176.527C612.491 169.942 598.831 172.925 592.245 183.19C585.66 193.455 588.642 207.115 598.907 213.701C609.173 220.286 622.833 217.304 629.419 207.039Z" fill="#DAE5F7"/>
<path d="M618.305 217.112H588.512C586.514 217.112 584.991 215.494 584.991 213.59V175.041C584.991 173.042 586.609 171.52 588.512 171.52H618.305C620.303 171.52 621.826 173.138 621.826 175.041V213.59C621.921 215.494 620.303 217.112 618.305 217.112Z" fill="#7AB794"/>
<path d="M613.26 213.305H591.083C590.226 213.305 589.655 212.638 589.655 211.877V176.374C589.655 175.613 590.321 174.946 591.083 174.946H616.496C617.353 174.946 617.924 175.613 617.924 176.374V208.736C617.353 209.402 613.831 212.829 613.26 213.305Z" fill="white" stroke="white" stroke-width="0.161" stroke-miterlimit="10"/>
<path d="M617.448 208.641L612.88 213.209L612.784 210.259C612.784 209.307 613.546 208.45 614.593 208.45L617.448 208.641Z" fill="#D8CFCE"/>
<path d="M593.462 176.088C592.701 176.088 592.035 175.422 592.035 174.661V170.282C592.035 169.521 592.701 168.854 593.462 168.854C594.224 168.854 594.89 169.521 594.89 170.282V174.661C594.89 175.422 594.224 176.088 593.462 176.088Z" fill="#7AB794"/>
<path opacity="0.37" d="M593.462 177.992C592.701 177.992 592.035 177.325 592.035 176.564V172.186C592.035 171.424 592.701 170.758 593.462 170.758C594.224 170.758 594.89 171.424 594.89 172.186V176.564C594.89 177.325 594.224 177.992 593.462 177.992Z" fill="#7AB794"/>
<path d="M602.695 176.088C601.934 176.088 601.267 175.422 601.267 174.661V170.282C601.267 169.521 601.934 168.854 602.695 168.854C603.457 168.854 604.123 169.521 604.123 170.282V174.661C604.123 175.422 603.457 176.088 602.695 176.088Z" fill="#7AB794"/>
<path opacity="0.37" d="M602.695 177.992C601.934 177.992 601.267 177.325 601.267 176.564V172.186C601.267 171.424 601.934 170.758 602.695 170.758C603.457 170.758 604.123 171.424 604.123 172.186V176.564C604.123 177.325 603.457 177.992 602.695 177.992Z" fill="#7AB794"/>
<path d="M611.833 176.088C611.071 176.088 610.405 175.422 610.405 174.661V170.282C610.405 169.521 611.071 168.854 611.833 168.854C612.594 168.854 613.26 169.521 613.26 170.282V174.661C613.26 175.422 612.689 176.088 611.833 176.088Z" fill="#7AB794"/>
<path opacity="0.37" d="M611.833 177.992C611.071 177.992 610.405 177.325 610.405 176.564V172.186C610.405 171.424 611.071 170.758 611.833 170.758C612.594 170.758 613.26 171.424 613.26 172.186V176.564C613.26 177.325 612.689 177.992 611.833 177.992Z" fill="#7AB794"/>
<path d="M595.461 193.983C595.461 194.84 594.795 195.506 593.938 195.506C593.082 195.506 592.415 194.84 592.415 193.983C592.415 193.126 593.082 192.46 593.938 192.46C594.795 192.555 595.461 193.221 595.461 193.983Z" stroke="#7AB794" stroke-width="1.03" stroke-miterlimit="10"/>
<path d="M595.461 200.55C595.461 201.407 594.795 202.073 593.938 202.073C593.082 202.073 592.415 201.407 592.415 200.55C592.415 199.694 593.082 199.027 593.938 199.027C594.795 199.027 595.461 199.694 595.461 200.55Z" stroke="#7AB794" stroke-width="1.03" stroke-miterlimit="10"/>
<path d="M595.461 207.023C595.461 207.88 594.795 208.546 593.938 208.546C593.082 208.546 592.415 207.88 592.415 207.023C592.415 206.166 593.082 205.5 593.938 205.5C594.795 205.595 595.461 206.261 595.461 207.023Z" stroke="#7AB794" stroke-width="1.03" stroke-miterlimit="10"/>
<path d="M611.547 194.554H599.269C598.888 194.554 598.602 194.269 598.602 193.888C598.602 193.507 598.888 193.222 599.269 193.222H611.547C611.928 193.222 612.213 193.507 612.213 193.888C612.118 194.269 611.833 194.554 611.547 194.554Z" fill="#7AB794"/>
<path d="M611.547 201.217H599.269C598.888 201.217 598.602 200.932 598.602 200.551C598.602 200.17 598.888 199.885 599.269 199.885H611.547C611.928 199.885 612.213 200.17 612.213 200.551C612.118 200.932 611.833 201.217 611.547 201.217Z" fill="#7AB794"/>
<path d="M611.547 207.879H599.269C598.888 207.879 598.602 207.594 598.602 207.213C598.602 206.832 598.888 206.547 599.269 206.547H611.547C611.928 206.547 612.213 206.832 612.213 207.213C612.118 207.594 611.833 207.879 611.547 207.879Z" fill="#7AB794"/>
<path d="M594.033 194.649C593.938 194.649 593.843 194.649 593.748 194.554L592.13 192.746C591.939 192.555 591.939 192.27 592.13 192.175C592.32 191.984 592.511 191.984 592.606 192.175L593.938 193.698L596.223 191.032C596.413 190.842 596.603 190.842 596.699 191.032C596.889 191.223 596.889 191.508 596.699 191.604L594.129 194.554C594.224 194.649 594.129 194.649 594.033 194.649Z" fill="#1B1A4D" stroke="#1B1A4D" stroke-width="0.7725" stroke-miterlimit="10" stroke-linecap="round" stroke-linejoin="round"/>
<path d="M594.033 201.217C593.938 201.217 593.843 201.217 593.748 201.122L592.13 199.313C591.939 199.123 591.939 198.837 592.13 198.742C592.32 198.552 592.511 198.552 592.606 198.742L593.938 200.265L596.223 197.6C596.413 197.409 596.603 197.409 596.699 197.6C596.889 197.79 596.889 198.076 596.699 198.171L594.129 201.122C594.224 201.122 594.129 201.217 594.033 201.217Z" fill="#1B1A4D" stroke="#1B1A4D" stroke-width="0.7725" stroke-miterlimit="10" stroke-linecap="round" stroke-linejoin="round"/>
<path opacity="0.74" d="M617.451 204.815C623.18 203.455 626.722 197.709 625.362 191.981C624.003 186.252 618.257 182.71 612.528 184.07C606.8 185.429 603.258 191.175 604.617 196.904C605.977 202.632 611.723 206.174 617.451 204.815Z" fill="white"/>
<path d="M617.451 204.815C623.18 203.455 626.722 197.709 625.362 191.981C624.003 186.252 618.257 182.71 612.528 184.07C606.8 185.429 603.258 191.175 604.617 196.904C605.977 202.632 611.723 206.174 617.451 204.815Z" stroke="#FFD375" stroke-width="2.7834" stroke-miterlimit="10"/>
<path d="M622.778 202.453L631.059 209.973" stroke="#FFD375" stroke-width="3.7378" stroke-miterlimit="10" stroke-linecap="round"/>
<path d="M577.281 128.687C586.428 128.687 593.842 121.272 593.842 112.125C593.842 102.978 586.428 95.5635 577.281 95.5635C568.134 95.5635 560.719 102.978 560.719 112.125C560.719 121.272 568.134 128.687 577.281 128.687Z" fill="#BAECCF"/>
<path d="M575.568 115.266H569.571V121.262H575.568V115.266Z" stroke="white" stroke-width="0.7004" stroke-miterlimit="10"/>
<path d="M570.809 117.55L571.856 119.454L577.662 112.981" stroke="white" stroke-width="0.7004" stroke-miterlimit="10" stroke-linecap="round"/>
<path d="M575.568 103.368H569.571V109.365H575.568V103.368Z" stroke="white" stroke-width="0.7004" stroke-miterlimit="10"/>
<path d="M570.809 105.558L571.856 107.461L577.662 101.084" stroke="white" stroke-width="0.7004" stroke-miterlimit="10" stroke-linecap="round"/>
<g opacity="0.57">
<path opacity="0.57" d="M594.509 107.176H580.517C579.946 107.176 579.375 106.7 579.375 106.034C579.375 105.463 579.851 104.892 580.517 104.892H594.509C595.08 104.892 595.651 105.368 595.651 106.034C595.651 106.7 595.08 107.176 594.509 107.176Z" fill="white" stroke="white" stroke-width="0.6619" stroke-miterlimit="10"/>
<path opacity="0.57" d="M595.556 119.073H580.517C579.851 119.073 579.375 118.598 579.375 117.931C579.375 117.265 579.851 116.789 580.517 116.789H595.556C596.222 116.789 596.698 117.265 596.698 117.931C596.698 118.598 596.222 119.073 595.556 119.073Z" fill="white" stroke="white" stroke-width="0.6619" stroke-miterlimit="10"/>
</g>
</svg>
